<svg xmlns="http://www.w3.org/2000/svg" width="110.548" height="15" viewBox="0 0 110.548 15">
  <path id="Path_4" data-name="Path 4" d="M10.625,22.2a2.887,2.887,0,0,0,.117,1,.4.4,0,0,0,.389.271.367.367,0,0,0,.322-.152.805.805,0,0,0,.108-.465V18.915a.807.807,0,0,0-.108-.465.371.371,0,0,0-.322-.152.4.4,0,0,0-.389.273,2.908,2.908,0,0,0-.117,1.006V22.2ZM8.491,24.935V14.819h2.134v2.806a2.02,2.02,0,0,1,.683-.7,1.691,1.691,0,0,1,.887-.238,1.381,1.381,0,0,1,1.161.491,2.406,2.406,0,0,1,.383,1.492V23.1a2.427,2.427,0,0,1-.387,1.5,1.37,1.37,0,0,1-1.157.5,1.718,1.718,0,0,1-.951-.278,2.076,2.076,0,0,1-.7-.785v.9Zm6.258,0v-8.1h2.135v8.1Zm0-8.552V14.819h2.135v1.564Zm6.134,6.973v1.657c-.146.024-.292.046-.439.06A4.472,4.472,0,0,1,20,25.1a1.943,1.943,0,0,1-1.5-.462,3.311,3.311,0,0,1-.408-2.01V18.255h-.554V16.646h.554V14.877h2.187v1.769h.606v1.608h-.644v4.658a.386.386,0,0,0,.15.331.707.707,0,0,0,.437.113Zm7.6-.38v2.056c-.181.033-.364.058-.548.078a5.274,5.274,0,0,1-.556.029,2.428,2.428,0,0,1-1.868-.575A4.12,4.12,0,0,1,25,22.06V16.6h-.7V14.614H25V12.422H27.71v2.193h.77V16.6h-.82v5.82a.489.489,0,0,0,.191.415.935.935,0,0,0,.555.139Zm3.608-5.869v1.1h1.257v-1.1a1.113,1.113,0,0,0-.149-.659.675.675,0,0,0-.958,0,1.116,1.116,0,0,0-.15.655Zm0,5.14a1.192,1.192,0,0,0,.145.674.683.683,0,0,0,.967,0,1.181,1.181,0,0,0,.145-.674v-1.23h2.807v.835a3.265,3.265,0,0,1-.856,2.469,3.617,3.617,0,0,1-2.588.818,3.6,3.6,0,0,1-2.578-.814,3.28,3.28,0,0,1-.848-2.474V17.5a3.239,3.239,0,0,1,.848-2.453,3.612,3.612,0,0,1,2.578-.81,3.643,3.643,0,0,1,2.588.81,3.225,3.225,0,0,1,.856,2.453V20.14H32.089v2.108Zm9.156-2.555a3.464,3.464,0,0,0-1.067.771,1.51,1.51,0,0,0-.248.918v1.064a1.743,1.743,0,0,0,.113.781.432.432,0,0,0,.4.188.655.655,0,0,0,.592-.34,1.861,1.861,0,0,0,.208-.972V19.693Zm.119,4.491a3.628,3.628,0,0,1-1,.723,2.457,2.457,0,0,1-1.059.233,1.958,1.958,0,0,1-1.576-.686,2.754,2.754,0,0,1-.582-1.847v-.832a3.049,3.049,0,0,1,.468-1.734,3.512,3.512,0,0,1,1.471-1.172c.125-.058.3-.139.526-.24q1.629-.719,1.628-1.478v-.375a.66.66,0,0,0-.188-.475.621.621,0,0,0-.464-.2.577.577,0,0,0-.5.273,1.282,1.282,0,0,0-.189.74v.654H37.327v-.654a2.665,2.665,0,0,1,.875-2.127,3.649,3.649,0,0,1,2.463-.756,3.677,3.677,0,0,1,2.538.728,3.121,3.121,0,0,1,.791,2.388v7.584H41.413l-.048-.751Zm7.559-1.207v2.056c-.181.033-.364.058-.547.078a5.294,5.294,0,0,1-.557.029,2.429,2.429,0,0,1-1.868-.575,4.129,4.129,0,0,1-.507-2.5V16.6h-.7V14.614h.7V12.422h2.708v2.193h.77V16.6H48.1v5.82a.488.488,0,0,0,.192.415.932.932,0,0,0,.554.139Zm3.608-5.869v1.1h1.257v-1.1a1.125,1.125,0,0,0-.149-.659.677.677,0,0,0-.96,0,1.123,1.123,0,0,0-.149.655Zm0,5.14a1.2,1.2,0,0,0,.145.674.683.683,0,0,0,.967,0,1.184,1.184,0,0,0,.145-.674v-1.23H56.6v.835a3.259,3.259,0,0,1-.857,2.469,3.615,3.615,0,0,1-2.586.818,3.6,3.6,0,0,1-2.579-.814,3.28,3.28,0,0,1-.849-2.474V17.5a3.239,3.239,0,0,1,.849-2.453,3.61,3.61,0,0,1,2.579-.81,3.641,3.641,0,0,1,2.586.81A3.22,3.22,0,0,1,56.6,17.5V20.14H52.531v2.108Zm5.3,2.687v-10.5h2.633v1.769a4.007,4.007,0,0,1,.86-1.454,1.629,1.629,0,0,1,1.127-.519v3.392a1.931,1.931,0,0,0-1.433.444,2.317,2.317,0,0,0-.41,1.577v5.288Zm9.438-6.969a3.878,3.878,0,0,0-.145-1.319.51.51,0,0,0-.506-.336.5.5,0,0,0-.433.2,1.018,1.018,0,0,0-.145.6v3.83a1.04,1.04,0,0,0,.145.6.493.493,0,0,0,.433.2.511.511,0,0,0,.5-.34,3.81,3.81,0,0,0,.149-1.315V17.965Zm0,4.646a2.55,2.55,0,0,1-.875.905,2.185,2.185,0,0,1-1.148.308,1.8,1.8,0,0,1-1.514-.643,3.112,3.112,0,0,1-.5-1.93V16.8a3.09,3.09,0,0,1,.5-1.925,1.8,1.8,0,0,1,1.514-.639,2.181,2.181,0,0,1,1.215.357,2.716,2.716,0,0,1,.912,1.021V14.438h2.673v8.937a3.586,3.586,0,0,1-.835,2.63,3.607,3.607,0,0,1-2.628.831,3.972,3.972,0,0,1-2.351-.592,2.051,2.051,0,0,1-.84-1.718h2.632v.048a.645.645,0,0,0,.136.439.482.482,0,0,0,.384.156.585.585,0,0,0,.562-.291,2.337,2.337,0,0,0,.161-1.037v-1.23Zm8.158-2.919a3.429,3.429,0,0,0-1.067.771,1.5,1.5,0,0,0-.25.918v1.064a1.713,1.713,0,0,0,.115.781.431.431,0,0,0,.4.188.659.659,0,0,0,.593-.34,1.869,1.869,0,0,0,.209-.972V19.693Zm.119,4.491a3.667,3.667,0,0,1-.994.723,2.472,2.472,0,0,1-1.06.233,1.957,1.957,0,0,1-1.577-.686,2.753,2.753,0,0,1-.582-1.847v-.832a3.064,3.064,0,0,1,.468-1.734,3.523,3.523,0,0,1,1.471-1.172c.125-.058.3-.139.527-.24q1.627-.719,1.629-1.478v-.375a.659.659,0,0,0-.189-.475.624.624,0,0,0-.465-.2.58.58,0,0,0-.5.273,1.3,1.3,0,0,0-.187.74v.654H71.5v-.654a2.663,2.663,0,0,1,.875-2.127,4.581,4.581,0,0,1,5-.028,3.119,3.119,0,0,1,.791,2.388v7.584H75.59l-.047-.751Zm3.991.751v-10.5h2.633v1.769a4.01,4.01,0,0,1,.861-1.454,1.63,1.63,0,0,1,1.127-.519v3.392a1.933,1.933,0,0,0-1.433.444,2.317,2.317,0,0,0-.411,1.577v5.288Zm9.408-5.242a3.452,3.452,0,0,0-1.067.771,1.5,1.5,0,0,0-.248.918v1.064a1.746,1.746,0,0,0,.113.781.431.431,0,0,0,.4.188.658.658,0,0,0,.593-.34,1.859,1.859,0,0,0,.209-.972V19.693Zm.119,4.491a3.614,3.614,0,0,1-.995.723,2.46,2.46,0,0,1-1.059.233,1.96,1.96,0,0,1-1.578-.686,2.766,2.766,0,0,1-.581-1.847v-.832a3.047,3.047,0,0,1,.469-1.734,3.507,3.507,0,0,1,1.47-1.172c.124-.058.3-.139.527-.24q1.627-.719,1.628-1.478v-.375a.659.659,0,0,0-.188-.475.622.622,0,0,0-.465-.2.576.576,0,0,0-.5.273,1.28,1.28,0,0,0-.189.74v.654H85.024v-.654a2.667,2.667,0,0,1,.874-2.127,4.583,4.583,0,0,1,5-.028,3.118,3.118,0,0,1,.79,2.388v7.584H89.11l-.049-.751ZM92.7,21.514h2.514v.612a1.462,1.462,0,0,0,.161.763.516.516,0,0,0,.467.262.545.545,0,0,0,.455-.225.96.96,0,0,0,.174-.6q0-.53-.936-1.293a1,1,0,0,1-.1-.08l-.494-.4q-2.157-1.745-2.158-3.334a2.819,2.819,0,0,1,.872-2.174,3.31,3.31,0,0,1,2.347-.81,3.044,3.044,0,0,1,2.2.75,2.779,2.779,0,0,1,.781,2.106v.476H96.474v-.459a1.411,1.411,0,0,0-.138-.717.476.476,0,0,0-.442-.227.533.533,0,0,0-.421.2.728.728,0,0,0-.168.492q0,.559,1.3,1.591.4.32.625.5a6.288,6.288,0,0,1,1.5,1.57,3.137,3.137,0,0,1,.4,1.611,2.817,2.817,0,0,1-.9,2.2,3.492,3.492,0,0,1-2.44.815,3.18,3.18,0,0,1-2.269-.774,2.8,2.8,0,0,1-.823-2.141v-.71Zm7.471-7.66V11.836h2.779v2.018Zm2.779,10.4a3.118,3.118,0,0,1-.5,1.97,1.957,1.957,0,0,1-1.6.609H99.413V24.759h.356a.323.323,0,0,0,.318-.17,1.9,1.9,0,0,0,.087-.725V14.438h2.779v9.818Zm4.007-7.149v1.1h1.258v-1.1a1.12,1.12,0,0,0-.149-.659.563.563,0,0,0-.48-.2.554.554,0,0,0-.478.2,1.114,1.114,0,0,0-.151.655Zm0,5.14a1.2,1.2,0,0,0,.145.674.682.682,0,0,0,.966,0,1.178,1.178,0,0,0,.146-.674v-1.23h2.807v.835a3.263,3.263,0,0,1-.857,2.469,4.5,4.5,0,0,1-5.166,0,3.281,3.281,0,0,1-.848-2.474V17.5A3.241,3.241,0,0,1,105,15.044a4.526,4.526,0,0,1,5.166,0,3.223,3.223,0,0,1,.857,2.453V20.14h-4.065v2.108Zm5.3,2.687v-10.5h2.632v1.236a2.734,2.734,0,0,1,.923-1.067,2.2,2.2,0,0,1,1.241-.373,1.777,1.777,0,0,1,1.494.632,3.121,3.121,0,0,1,.492,1.925v8.143h-2.777v-7.3a1.115,1.115,0,0,0-.14-.618.474.474,0,0,0-.421-.208.54.54,0,0,0-.508.283,2.12,2.12,0,0,0-.16.966v6.877Z" transform="translate(-8.491 -11.836)" fill="#1a1818"/>
</svg>
