<svg xmlns="http://www.w3.org/2000/svg" width="27.596" height="30" viewBox="0 0 27.596 30">
  <path id="Path_3" data-name="Path 3" d="M-564.756-190.5v-29.745a.712.712,0,0,1,.087.061c.289.288.577.578.868.865a.2.2,0,0,1,.073.177.68.68,0,0,0,0,.086v28.8c-.047.005-.084.012-.12.012h-3.893a.425.425,0,0,1-.1-.005c-.3-.074-.6-.151-.9-.249Zm-26.563.023c.3.075.595.151.892.225a.48.48,0,0,0,.115.008h3.892c.037,0,.074-.006.124-.01v-.192q0-5.421,0-10.841,0-3.77,0-7.54a.559.559,0,0,0-.056-.263c-.3-.6-.6-1.2-.9-1.8a.661.661,0,0,0-.051-.074l-.026.008v20.456h-3.99Zm13.265-8.376c.135-.318.266-.638.406-.954a.318.318,0,0,0-.005-.283q-3.7-8.4-7.4-16.793l-1.185-2.689a.3.3,0,0,0-.13-.164c-.284-.151-.564-.309-.846-.464a.72.72,0,0,0-.108-.035l9.211,21.516C-578.086-198.79-578.068-198.823-578.054-198.858Zm9.165-12.108-7.151,16.355H-580l0,.03c.04.011.08.024.121.034.289.071.577.144.867.212a1.007,1.007,0,0,0,.227.029q1.816,0,3.632,0c.047,0,.094,0,.142-.007l.446-1.04q2.831-6.614,5.659-13.229a.619.619,0,0,0,.05-.235c0-.677,0-1.355,0-2.032q0-.056,0-.112Z" transform="translate(591.322 220.249)"/>
</svg>
