<svg xmlns="http://www.w3.org/2000/svg" width="118.552" height="20" viewBox="0 0 118.552 20">
  <path id="Path_2" data-name="Path 2" d="M230.646,252.653h1.245v-2.843h2.96v2.843H237.6v2.588h-2.745v3.53c0,.823.333,1.157,1.137,1.157H237.6v2.705H234.89a2.8,2.8,0,0,1-3-3.019v-4.373h-1.245ZM128.9,257.575a4.8,4.8,0,0,1-4.744,5.058,3.407,3.407,0,0,1-2.157-.726v4.176h-2.96V252.674H122v.588a3.424,3.424,0,0,1,2.157-.745A4.8,4.8,0,0,1,128.9,257.575Zm-2.98,0a2.208,2.208,0,0,0-2.255-2.352,1.967,1.967,0,0,0-1.666.823v3.078a1.951,1.951,0,0,0,1.666.8A2.208,2.208,0,0,0,125.925,257.575Zm4.763,4.9h2.96v-6.411a2.848,2.848,0,0,1,1.784-.647,3.332,3.332,0,0,1,1.51.333v-3.078a3.549,3.549,0,0,0-1.059-.157,2.731,2.731,0,0,0-2.235,1.019v-.863h-2.96ZM171.8,258.1h-6.881a2.044,2.044,0,0,0,2.137,1.823,2.245,2.245,0,0,0,2.1-1.235l2.353,1.588a5.157,5.157,0,0,1-4.431,2.352,4.994,4.994,0,0,1-5-5.058,4.87,4.87,0,0,1,5.058-5.058,4.5,4.5,0,0,1,4.725,4.725A6.634,6.634,0,0,1,171.8,258.1Zm-2.862-1.725a1.8,1.8,0,0,0-1.98-1.49,1.956,1.956,0,0,0-2.019,1.49Zm4.646,6.1h2.96v-6.411a2.849,2.849,0,0,1,1.784-.647,3.333,3.333,0,0,1,1.51.333v-3.078a3.55,3.55,0,0,0-1.059-.157,2.732,2.732,0,0,0-2.235,1.019v-.863h-2.96Zm17.212-4.9a5.1,5.1,0,1,1-5.1-5.058A5.079,5.079,0,0,1,190.791,257.575Zm-2.98,0a2.124,2.124,0,1,0-2.117,2.294A2.131,2.131,0,0,0,187.811,257.575Zm41.684.529h-6.881a2.044,2.044,0,0,0,2.137,1.823,2.245,2.245,0,0,0,2.1-1.235l2.353,1.588a5.157,5.157,0,0,1-4.431,2.352,4.994,4.994,0,0,1-5-5.058,4.87,4.87,0,0,1,5.058-5.058,4.5,4.5,0,0,1,4.725,4.725A6.6,6.6,0,0,1,229.5,258.1Zm-2.862-1.725a1.8,1.8,0,0,0-1.98-1.49,1.956,1.956,0,0,0-2.019,1.49Zm-71.542,9.882,6.78-13.608h-3.49l-3.291,7.215-3.293-7.215h-3.49ZM148,257.575a5.1,5.1,0,1,1-5.1-5.058A5.079,5.079,0,0,1,148,257.575Zm-7.214,0a2.774,2.774,0,0,0,.073.631l2.792-2.792a2.131,2.131,0,0,0-2.864,2.161Zm4.234,0a2.76,2.76,0,0,0-.073-.631l-2.792,2.792a2.131,2.131,0,0,0,2.864-2.161Zm67.974-7.765-3.036,5.687-4.612-9.237-4.614,9.239-3.037-5.689-6.608,12.648h3.49l3.118-6.192,3.132,6.09.051.12,4.467-9.823,4.469,9.823.09-.2,3.09-6.007,3.119,6.192H219.6Z" transform="translate(-119.044 -246.261)" fill="#161615"/>
</svg>
